{
    "asset" : {
        "generator" : "Khronos glTF Blender I/O v1.3.48",
        "version" : "2.0"
    },
    "scene" : 0,
    "scenes" : [
        {
            "name" : "Scene",
            "nodes" : [
                25
            ]
        }
    ],
    "nodes" : [
        {
            "name" : "attach_bottom",
            "translation" : [
                0,
                0,
                -0.5671471357345581
            ]
        },
        {
            "name" : "attach_rcs135d",
            "translation" : [
                -1.0566200017929077,
                1.0566200017929077,
                0.3187812864780426
            ]
        },
        {
            "name" : "attach_rcs225d",
            "translation" : [
                -1.0566200017929077,
                -1.0566200017929077,
                0.3187812864780426
            ]
        },
        {
            "name" : "attach_rcs315d",
            "translation" : [
                1.0566200017929077,
                -1.0566200017929077,
                0.3187812864780426
            ]
        },
        {
            "name" : "attach_rcs45d",
            "translation" : [
                1.0566240549087524,
                1.0566240549087524,
                0.3187812864780426
            ]
        },
        {
            "extras" : {
                "shape" : "cylinder"
            },
            "name" : "col_landerCapsule",
            "scale" : [
                1.4999916553497314,
                1.4999916553497314,
                1
            ],
            "translation" : [
                0,
                0,
                0.4805201590061188
            ]
        },
        {
            "extras" : {
                "PlumeName" : "plume_rcs45",
                "RocketName" : "ithruster_+x_-"
            },
            "name" : "fx_plume_ithruster_+x_-",
            "rotation" : [
                -0.6532815098762512,
                -0.27059808373451233,
                0.6532814502716064,
                -0.2705981135368347
            ],
            "translation" : [
                1.1220228672027588,
                -0.3397744596004486,
                1.3201684951782227
            ]
        },
        {
            "extras" : {
                "PlumeName" : "plume_rcs45",
                "RocketName" : "ithruster_+y_+"
            },
            "name" : "fx_plume_ithruster_+y_+",
            "rotation" : [
                -0.27059805393218994,
                -0.6532815098762512,
                0.6532814502716064,
                0.27059805393218994
            ],
            "translation" : [
                -0.3397744596004486,
                1.1220227479934692,
                1.3201684951782227
            ]
        },
        {
            "extras" : {
                "PlumeName" : "plume_rcs45",
                "RocketName" : "ithruster_+y_-"
            },
            "name" : "fx_plume_ithruster_+y_-",
            "rotation" : [
                0.2705981135368347,
                -0.6532814502716064,
                0.6532814502716064,
                -0.2705981135368347
            ],
            "translation" : [
                0.3397744596004486,
                1.1220227479934692,
                1.3201684951782227
            ]
        },
        {
            "extras" : {
                "PlumeName" : "plume_rcs45",
                "RocketName" : "ithruster_-x_+"
            },
            "name" : "fx_plume_ithruster_-x_+",
            "rotation" : [
                0.6532815098762512,
                -0.27059802412986755,
                0.6532814502716064,
                0.27059805393218994
            ],
            "translation" : [
                -1.1220228672027588,
                -0.33977460861206055,
                1.3201684951782227
            ]
        },
        {
            "extras" : {
                "PlumeName" : "plume_rcs45",
                "RocketName" : "ithruster_-x_-"
            },
            "name" : "fx_plume_ithruster_-x_-",
            "rotation" : [
                0.6532815098762512,
                0.27059808373451233,
                0.6532814502716064,
                -0.2705981135368347
            ],
            "translation" : [
                -1.1220228672027588,
                0.3397742211818695,
                1.3201684951782227
            ]
        },
        {
            "extras" : {
                "PlumeName" : "plume_rcs45",
                "RocketName" : "ithruster_-y_+"
            },
            "name" : "fx_plume_ithruster_-y_+",
            "rotation" : [
                0.27059805393218994,
                0.6532815098762512,
                0.6532814502716064,
                0.27059805393218994
            ],
            "translation" : [
                0.339774489402771,
                -1.1220228672027588,
                1.3201684951782227
            ]
        },
        {
            "extras" : {
                "PlumeName" : "plume_rcs45",
                "RocketName" : "ithruster_-y_-"
            },
            "name" : "fx_plume_ithruster_-y_-",
            "rotation" : [
                -0.2705981135368347,
                0.6532814502716064,
                0.6532814502716064,
                -0.2705981135368347
            ],
            "translation" : [
                -0.33977431058883667,
                -1.1220228672027588,
                1.3201684951782227
            ]
        },
        {
            "extras" : {
                "PlumeName" : "plume_rcs45",
                "RocketName" : "ithruster_+x_+"
            },
            "name" : "fx_plume_ithruster_+x_+",
            "rotation" : [
                -0.6532815098762512,
                0.27059802412986755,
                0.6532814502716064,
                0.27059805393218994
            ],
            "translation" : [
                1.1220228672027588,
                0.3397744596004486,
                1.3201684951782227
            ]
        },
        {
            "extras" : {
                "machines" : [
                    {
                        "type" : "RCSController"
                    },
                    {
                        "type" : "Rocket",
                        "thrust" : 1000.0,
                        "Isp" : 310.0,
                        "input_names" : [
                            "lzdb:mmh",
                            "lzdb:nto"
                        ],
                        "input_mass_rate_fractions" : [
                            1.0,
                            2.16
                        ]
                    }
                ]
            },
            "name" : "ithruster_+y_+",
            "rotation" : [
                -0.6532815098762512,
                0.27059805393218994,
                -0.27059805393218994,
                0.6532814502716064
            ],
            "translation" : [
                -0.3397744596004486,
                1.1220227479934692,
                1.3201684951782227
            ]
        },
        {
            "extras" : {
                "machines" : [
                    {
                        "type" : "RCSController"
                    },
                    {
                        "type" : "Rocket",
                        "thrust" : 1000.0,
                        "Isp" : 310.0,
                        "input_names" : [
                            "lzdb:mmh",
                            "lzdb:nto"
                        ],
                        "input_mass_rate_fractions" : [
                            1.0,
                            2.16
                        ]
                    }
                ]
            },
            "name" : "ithruster_+y_-",
            "rotation" : [
                -0.6532815098762512,
                -0.27059805393218994,
                0.27059805393218994,
                0.6532814502716064
            ],
            "translation" : [
                0.3397744596004486,
                1.1220227479934692,
                1.3201684951782227
            ]
        },
        {
            "extras" : {
                "machines" : [
                    {
                        "type" : "RCSController"
                    },
                    {
                        "type" : "Rocket",
                        "thrust" : 1000.0,
                        "Isp" : 310.0,
                        "input_names" : [
                            "lzdb:mmh",
                            "lzdb:nto"
                        ],
                        "input_mass_rate_fractions" : [
                            1.0,
                            2.16
                        ]
                    }
                ]
            },
            "name" : "ithruster_-x_+",
            "rotation" : [
                -0.27059805393218994,
                -0.6532814502716064,
                -0.27059805393218994,
                0.6532815098762512
            ],
            "translation" : [
                -1.1220228672027588,
                -0.33977460861206055,
                1.3201684951782227
            ]
        },
        {
            "extras" : {
                "machines" : [
                    {
                        "type" : "RCSController"
                    },
                    {
                        "type" : "Rocket",
                        "thrust" : 1000.0,
                        "Isp" : 310.0,
                        "input_names" : [
                            "lzdb:mmh",
                            "lzdb:nto"
                        ],
                        "input_mass_rate_fractions" : [
                            1.0,
                            2.16
                        ]
                    }
                ]
            },
            "name" : "ithruster_+x_-",
            "rotation" : [
                -0.27059805393218994,
                0.6532814502716064,
                0.27059805393218994,
                0.6532815098762512
            ],
            "translation" : [
                1.1220228672027588,
                -0.3397744596004486,
                1.3201684951782227
            ]
        },
        {
            "extras" : {
                "machines" : [
                    {
                        "type" : "RCSController"
                    },
                    {
                        "type" : "Rocket",
                        "thrust" : 1000.0,
                        "Isp" : 310.0,
                        "input_names" : [
                            "lzdb:mmh",
                            "lzdb:nto"
                        ],
                        "input_mass_rate_fractions" : [
                            1.0,
                            2.16
                        ]
                    }
                ]
            },
            "name" : "ithruster_-x_-",
            "rotation" : [
                0.27059805393218994,
                -0.6532814502716064,
                0.27059805393218994,
                0.6532815098762512
            ],
            "translation" : [
                -1.1220228672027588,
                0.3397742211818695,
                1.3201684951782227
            ]
        },
        {
            "extras" : {
                "machines" : [
                    {
                        "type" : "RCSController"
                    },
                    {
                        "type" : "Rocket",
                        "thrust" : 1000.0,
                        "Isp" : 310.0,
                        "input_names" : [
                            "lzdb:mmh",
                            "lzdb:nto"
                        ],
                        "input_mass_rate_fractions" : [
                            1.0,
                            2.16
                        ]
                    }
                ]
            },
            "name" : "ithruster_-y_+",
            "rotation" : [
                0.6532815098762512,
                -0.27059805393218994,
                -0.27059805393218994,
                0.6532814502716064
            ],
            "translation" : [
                0.339774489402771,
                -1.1220228672027588,
                1.3201684951782227
            ]
        },
        {
            "extras" : {
                "machines" : [
                    {
                        "type" : "RCSController"
                    },
                    {
                        "type" : "Rocket",
                        "thrust" : 1000.0,
                        "Isp" : 310.0,
                        "input_names" : [
                            "lzdb:mmh",
                            "lzdb:nto"
                        ],
                        "input_mass_rate_fractions" : [
                            1.0,
                            2.16
                        ]
                    }
                ]
            },
            "name" : "ithruster_-y_-",
            "rotation" : [
                0.6532815098762512,
                0.27059805393218994,
                0.27059805393218994,
                0.6532814502716064
            ],
            "translation" : [
                -0.33977431058883667,
                -1.1220228672027588,
                1.3201684951782227
            ]
        },
        {
            "extras" : {
                "machines" : [
                    {
                        "type" : "RCSController"
                    },
                    {
                        "type" : "Rocket",
                        "thrust" : 1000.0,
                        "Isp" : 310.0,
                        "input_names" : [
                            "lzdb:mmh",
                            "lzdb:nto"
                        ],
                        "input_mass_rate_fractions" : [
                            1.0,
                            2.16
                        ]
                    }
                ]
            },
            "name" : "ithruster_+x_+",
            "rotation" : [
                0.27059805393218994,
                0.6532814502716064,
                -0.27059805393218994,
                0.6532815098762512
            ],
            "translation" : [
                1.1220228672027588,
                0.3397744596004486,
                1.3201684951782227
            ]
        },
        {
            "mesh" : 0,
            "name" : "landerCapsuleRcs",
            "translation" : [
                0,
                0,
                1.479282021522522
            ]
        },
        {
            "extras" : {
                "shape" : "sphere",
                "machines" : [
                    {
                        "type" : "Container",
                        "storagetype" : "liquid"
                    }
                ]
            },
            "name" : "MMH_tank",
            "scale" : [
                0.1850000023841858,
                0.1850000023841858,
                0.1850000023841858
            ],
            "translation" : [
                -0.5,
                0,
                -0.17355966567993164
            ]
        },
        {
            "extras" : {
                "shape" : "sphere",
                "machines" : [
                    {
                        "type" : "Container",
                        "storagetype" : "liquid"
                    }
                ]
            },
            "name" : "NTO_tank",
            "scale" : [
                0.2240000069141388,
                0.2240000069141388,
                0.2240000069141388
            ],
            "translation" : [
                0.4999999701976776,
                0,
                -0.17355966567993164
            ]
        },
        {
            "children" : [
                0,
                1,
                2,
                3,
                4,
                5,
                6,
                7,
                8,
                9,
                10,
                11,
                12,
                13,
                14,
                15,
                16,
                17,
                18,
                19,
                20,
                21,
                22,
                23,
                24
            ],
            "extras" : {
                "country" : "Lunaria",
                "description" : "A vessel rated to contain extremely high levels of stress",
                "manufacturer" : "Ed's fishtank accessories, inc.",
                "machines" : [
                    {
                        "type" : "UserControl"
                    }
                ],
                "name" : "Lander Capsule Mk. 0 (alpha version)",
                "massdry" : 1000
            },
            "name" : "part_ph_landerCapsule"
        }
    ],
    "materials" : [
        {
            "doubleSided" : true,
            "emissiveFactor" : [
                0,
                0,
                0
            ],
            "name" : "Material",
            "pbrMetallicRoughness" : {
                "baseColorTexture" : {
                    "index" : 0,
                    "texCoord" : 0
                },
                "metallicRoughnessTexture" : {
                    "index" : 1,
                    "texCoord" : 0
                }
            }
        }
    ],
    "meshes" : [
        {
            "name" : "Cylinder.008",
            "primitives" : [
                {
                    "attributes" : {
                        "POSITION" : 0,
                        "NORMAL" : 1,
                        "TEXCOORD_0" : 2
                    },
                    "indices" : 3,
                    "material" : 0
                }
            ]
        }
    ],
    "textures" : [
        {
            "source" : 0
        },
        {
            "source" : 1
        }
    ],
    "images" : [
        {
            "mimeType" : "image/png",
            "name" : "ph_base",
            "uri" : "ph_base.png"
        },
        {
            "mimeType" : "image/png",
            "name" : "ph_metal-ph_rough",
            "uri" : "ph_metal-ph_rough.png"
        }
    ],
    "accessors" : [
        {
            "bufferView" : 0,
            "componentType" : 5126,
            "count" : 1526,
            "max" : [
                1.5319478511810303,
                1.5439645051956177,
                -4.76837158203125e-07
            ],
            "min" : [
                -1.5,
                -1.4999998807907104,
                -2.04642915725708
            ],
            "type" : "VEC3"
        },
        {
            "bufferView" : 1,
            "componentType" : 5126,
            "count" : 1526,
            "type" : "VEC3"
        },
        {
            "bufferView" : 2,
            "componentType" : 5126,
            "count" : 1526,
            "type" : "VEC2"
        },
        {
            "bufferView" : 3,
            "componentType" : 5123,
            "count" : 5226,
            "type" : "SCALAR"
        }
    ],
    "bufferViews" : [
        {
            "buffer" : 0,
            "byteLength" : 18312,
            "byteOffset" : 0
        },
        {
            "buffer" : 0,
            "byteLength" : 18312,
            "byteOffset" : 18312
        },
        {
            "buffer" : 0,
            "byteLength" : 12208,
            "byteOffset" : 36624
        },
        {
            "buffer" : 0,
            "byteLength" : 10452,
            "byteOffset" : 48832
        }
    ],
    "buffers" : [
        {
            "byteLength" : 59284,
            "uri" : "ph_lander_capsule.sturdy.bin"
        }
    ]
}
