{
    "asset" : {
        "generator" : "Khronos glTF Blender I/O v1.3.48",
        "version" : "2.0"
    },
    "scene" : 0,
    "scenes" : [
        {
            "name" : "Scene",
            "nodes" : [
                14
            ]
        }
    ],
    "nodes" : [
        {
            "name" : "attach_eng",
            "translation" : [
                0,
                0,
                -0.20933175086975098
            ]
        },
        {
            "name" : "attach_fuselage_135d",
            "translation" : [
                -0.9156349301338196,
                0.9156354069709778,
                -0.1804509162902832
            ]
        },
        {
            "name" : "attach_fuselage_225d",
            "translation" : [
                -0.9156349301338196,
                -0.9156348705291748,
                -0.1804509162902832
            ]
        },
        {
            "name" : "attach_fuselage_270d",
            "translation" : [
                0.9156350493431091,
                -0.9156348705291748,
                -0.1804509162902832
            ]
        },
        {
            "name" : "attach_fuselage_45d",
            "translation" : [
                0.9156354665756226,
                0.9156354069709778,
                -0.4238760471343994
            ]
        },
        {
            "name" : "attach_fuselageLeg0",
            "translation" : [
                1.531630039215088,
                0,
                0.18421590328216553
            ]
        },
        {
            "name" : "attach_fuselageLeg180",
            "translation" : [
                -1.531630039215088,
                0,
                0.18421590328216553
            ]
        },
        {
            "name" : "attach_fuselageLeg270",
            "translation" : [
                0,
                -1.5316299200057983,
                0.18421590328216553
            ]
        },
        {
            "name" : "attach_fuselageLeg90",
            "translation" : [
                0,
                1.5316319465637207,
                0.18421590328216553
            ]
        },
        {
            "name" : "attach_top",
            "translation" : [
                0,
                0,
                0.7170687913894653
            ]
        },
        {
            "extras" : {
                "shape" : "cube"
            },
            "name" : "col_fuselage",
            "rotation" : [
                0,
                0,
                0.3826834261417389,
                0.9238795638084412
            ],
            "scale" : [
                1.29466712474823,
                1.29466712474823,
                0.7083781957626343
            ]
        },
        {
            "extras" : {
                "shape" : "cylinder"
            },
            "name" : "fueltank",
            "scale" : [
                1.25,
                1.25,
                0.5
            ],
            "translation" : [
                0,
                0,
                -0.1506054401397705
            ]
        },
        {
            "extras" : {
                "shape" : "cylinder",
                "machines" : [
                    {
                        "type" : "Container",
                        "storagetype" : "liquid"
                    }
                ]
            },
            "name" : "lander_fuselagetank",
            "scale" : [
                1.0399999618530273,
                1.0399999618530273,
                0.4300000071525574
            ],
            "translation" : [
                0,
                0,
                0.24727106094360352
            ]
        },
        {
            "mesh" : 0,
            "name" : "landerFuselage",
            "rotation" : [
                0,
                0,
                0.3826834559440613,
                0.9238795638084412
            ]
        },
        {
            "children" : [
                0,
                1,
                2,
                3,
                4,
                5,
                6,
                7,
                8,
                9,
                10,
                11,
                12,
                13
            ],
            "extras" : {
                "country" : "Lunaria",
                "description" : "A container for storing fuel permanently on the moon",
                "manufacturer" : "Anonymous tin snips man",
                "name" : "Lander Fuselage Mk. I",
                "massdry" : 1200
            },
            "name" : "part_ph_landerFuselage"
        }
    ],
    "materials" : [
        {
            "doubleSided" : true,
            "emissiveFactor" : [
                0,
                0,
                0
            ],
            "name" : "Material",
            "pbrMetallicRoughness" : {
                "baseColorTexture" : {
                    "index" : 0,
                    "texCoord" : 0
                },
                "metallicRoughnessTexture" : {
                    "index" : 1,
                    "texCoord" : 0
                }
            }
        }
    ],
    "meshes" : [
        {
            "name" : "Cube.004",
            "primitives" : [
                {
                    "attributes" : {
                        "POSITION" : 0,
                        "NORMAL" : 1,
                        "TEXCOORD_0" : 2
                    },
                    "indices" : 3,
                    "material" : 0
                }
            ]
        }
    ],
    "textures" : [
        {
            "source" : 0
        },
        {
            "source" : 1
        }
    ],
    "images" : [
        {
            "mimeType" : "image/png",
            "name" : "ph_base",
            "uri" : "ph_base.png"
        },
        {
            "mimeType" : "image/png",
            "name" : "ph_metal-ph_rough",
            "uri" : "ph_metal-ph_rough.png"
        }
    ],
    "accessors" : [
        {
            "bufferView" : 0,
            "componentType" : 5126,
            "count" : 288,
            "max" : [
                1.299365520477295,
                1.299365520477295,
                0.7082685232162476
            ],
            "min" : [
                -1.299365520477295,
                -1.299365520477295,
                -0.746921956539154
            ],
            "type" : "VEC3"
        },
        {
            "bufferView" : 1,
            "componentType" : 5126,
            "count" : 288,
            "type" : "VEC3"
        },
        {
            "bufferView" : 2,
            "componentType" : 5126,
            "count" : 288,
            "type" : "VEC2"
        },
        {
            "bufferView" : 3,
            "componentType" : 5123,
            "count" : 684,
            "type" : "SCALAR"
        }
    ],
    "bufferViews" : [
        {
            "buffer" : 0,
            "byteLength" : 3456,
            "byteOffset" : 0
        },
        {
            "buffer" : 0,
            "byteLength" : 3456,
            "byteOffset" : 3456
        },
        {
            "buffer" : 0,
            "byteLength" : 2304,
            "byteOffset" : 6912
        },
        {
            "buffer" : 0,
            "byteLength" : 1368,
            "byteOffset" : 9216
        }
    ],
    "buffers" : [
        {
            "byteLength" : 10584,
            "uri" : "ph_lander_fuselage.sturdy.bin"
        }
    ]
}
