{
    "asset" : {
        "generator" : "Khronos glTF Blender I/O v1.3.48",
        "version" : "2.0"
    },
    "scene" : 0,
    "scenes" : [
        {
            "name" : "Scene",
            "nodes" : [
                6
            ]
        }
    ],
    "nodes" : [
        {
            "extras" : {
                "shape" : "cylinder"
            },
            "name" : "attach_engPoint",
            "translation" : [
                0,
                0,
                0.11586761474609375
            ]
        },
        {
            "extras" : {
                "shape" : "cylinder"
            },
            "name" : "col_MEbellRing",
            "scale" : [
                0.6886044144630432,
                0.6886044144630432,
                0.08704692870378494
            ],
            "translation" : [
                0,
                0,
                -0.903378963470459
            ]
        },
        {
            "extras" : {
                "shape" : "cylinder"
            },
            "name" : "col_MEmain",
            "scale" : [
                0.3403087258338928,
                0.3403087258338928,
                0.3403087258338928
            ],
            "translation" : [
                0,
                0,
                -0.23421025276184082
            ]
        },
        {
            "extras" : {
                "plumename" : "plume_landerME"
            },
            "name" : "fx_plume_landerME",
            "translation" : [
                0,
                0,
                -0.992680549621582
            ]
        },
        {
            "mesh" : 0,
            "name" : "landerMEmesh",
            "translation" : [
                0,
                0,
                0.11586761474609375
            ]
        },
        {
            "name" : "landerMErkt",
            "rotation" : [
                1,
                0,
                0,
                -1.6292068494294654e-07
            ],
            "translation" : [
                0,
                0,
                -0.1253039836883545
            ]
        },
        {
            "children" : [
                0,
                1,
                2,
                3,
                4,
                5
            ],
            "extras" : {
                "massdry" : 500,
                "country" : "Lunaria",
                "description" : "A hole through which to vent mass at (hopefully) high velocity",
                "manufacturer" : "Discount tools depot",
                "name" : "Lunar descent engine",
                "machines" : [
                    {
                        "type" : "Rocket",
                        "thrust" : 100000.0,
                        "Isp" : 310.0,
                        "input_names" : [
                            "lzdb:aero50",
                            "lzdb:nto"
                        ],
                        "input_mass_rate_fractions" : [
                            1.0,
                            1.0
                        ]
                    }
                ]
            },
            "name" : "part_ph_landerME",
            "translation" : [
                0,
                0,
                -1.6094152927398682
            ]
        }
    ],
    "materials" : [
        {
            "doubleSided" : true,
            "emissiveFactor" : [
                0,
                0,
                0
            ],
            "name" : "Material",
            "pbrMetallicRoughness" : {
                "baseColorTexture" : {
                    "index" : 0,
                    "texCoord" : 0
                },
                "metallicRoughnessTexture" : {
                    "index" : 1,
                    "texCoord" : 0
                }
            }
        }
    ],
    "meshes" : [
        {
            "name" : "Cylinder.003",
            "primitives" : [
                {
                    "attributes" : {
                        "POSITION" : 0,
                        "NORMAL" : 1,
                        "TEXCOORD_0" : 2
                    },
                    "indices" : 3,
                    "material" : 0
                }
            ]
        }
    ],
    "textures" : [
        {
            "source" : 0
        },
        {
            "source" : 1
        }
    ],
    "images" : [
        {
            "mimeType" : "image/png",
            "name" : "ph_base",
            "uri" : "ph_base.png"
        },
        {
            "mimeType" : "image/png",
            "name" : "ph_metal-ph_rough",
            "uri" : "ph_metal-ph_rough.png"
        }
    ],
    "accessors" : [
        {
            "bufferView" : 0,
            "componentType" : 5126,
            "count" : 788,
            "max" : [
                0.6963721513748169,
                0.6963720321655273,
                -0.00940212607383728
            ],
            "min" : [
                -0.6963720321655273,
                -0.6963720917701721,
                -1.1085468530654907
            ],
            "type" : "VEC3"
        },
        {
            "bufferView" : 1,
            "componentType" : 5126,
            "count" : 788,
            "type" : "VEC3"
        },
        {
            "bufferView" : 2,
            "componentType" : 5126,
            "count" : 788,
            "type" : "VEC2"
        },
        {
            "bufferView" : 3,
            "componentType" : 5123,
            "count" : 3342,
            "type" : "SCALAR"
        }
    ],
    "bufferViews" : [
        {
            "buffer" : 0,
            "byteLength" : 9456,
            "byteOffset" : 0
        },
        {
            "buffer" : 0,
            "byteLength" : 9456,
            "byteOffset" : 9456
        },
        {
            "buffer" : 0,
            "byteLength" : 6304,
            "byteOffset" : 18912
        },
        {
            "buffer" : 0,
            "byteLength" : 6684,
            "byteOffset" : 25216
        }
    ],
    "buffers" : [
        {
            "byteLength" : 31900,
            "uri" : "ph_lander_ME.sturdy.bin"
        }
    ]
}
