{
    "asset" : {
        "generator" : "Khronos glTF Blender I/O v1.3.48",
        "version" : "2.0"
    },
    "scene" : 0,
    "scenes" : [
        {
            "name" : "Scene",
            "nodes" : [
                4
            ]
        }
    ],
    "nodes" : [
        {
            "name" : "attach_leg",
            "rotation" : [
                0,
                0,
                -0.7071068286895752,
                0.7071067094802856
            ]
        },
        {
            "extras" : {
                "shape" : "cylinder"
            },
            "name" : "col_foot",
            "rotation" : [
                0,
                0,
                -0.7071068286895752,
                0.7071067094802856
            ],
            "scale" : [
                0.47619181871414185,
                0.47619181871414185,
                0.053263142704963684
            ],
            "translation" : [
                1.4313573837280273,
                0.0024369226302951574,
                -2.3835954666137695
            ]
        },
        {
            "extras" : {
                "shape" : "cube"
            },
            "name" : "col_leg",
            "rotation" : [
                0.0990457758307457,
                -0.2391176074743271,
                -0.36964380741119385,
                0.8923991322517395
            ],
            "scale" : [
                0.0598384253680706,
                0.059838440269231796,
                1.4706615209579468
            ],
            "translation" : [
                0.6643891334533691,
                0,
                -1.1093753576278687
            ]
        },
        {
            "mesh" : 0,
            "name" : "landerleg",
            "rotation" : [
                0,
                0,
                -0.7071068286895752,
                0.7071067094802856
            ],
            "translation" : [
                0.13024699687957764,
                0,
                -0.18421590328216553
            ]
        },
        {
            "children" : [
                0,
                1,
                2,
                3
            ],
            "extras" : {
                "country" : "Lunaria",
                "description" : "Extends ship crumple zone by up to 2 meters",
                "manufacturer" : "Ship Depot(R)",
                "name" : "P-122H Temporary Landing Leg",
                "massdry" : 150
            },
            "name" : "part_ph_landerLeg",
            "translation" : [
                1.531630039215088,
                0,
                -1.100000023841858
            ]
        }
    ],
    "materials" : [
        {
            "doubleSided" : true,
            "emissiveFactor" : [
                0,
                0,
                0
            ],
            "name" : "Material",
            "pbrMetallicRoughness" : {
                "baseColorTexture" : {
                    "index" : 0,
                    "texCoord" : 0
                },
                "metallicRoughnessTexture" : {
                    "index" : 1,
                    "texCoord" : 0
                }
            }
        }
    ],
    "meshes" : [
        {
            "name" : "Cube.005",
            "primitives" : [
                {
                    "attributes" : {
                        "POSITION" : 0,
                        "NORMAL" : 1,
                        "TEXCOORD_0" : 2
                    },
                    "indices" : 3,
                    "material" : 0
                }
            ]
        }
    ],
    "textures" : [
        {
            "source" : 0
        },
        {
            "source" : 1
        }
    ],
    "images" : [
        {
            "mimeType" : "image/png",
            "name" : "ph_base",
            "uri" : "ph_base.png"
        },
        {
            "mimeType" : "image/png",
            "name" : "ph_metal-ph_rough",
            "uri" : "ph_metal-ph_rough.png"
        }
    ],
    "accessors" : [
        {
            "bufferView" : 0,
            "componentType" : 5126,
            "count" : 872,
            "max" : [
                0.4725867211818695,
                1.7777918577194214,
                0.42931854724884033
            ],
            "min" : [
                -0.47728171944618225,
                -0.29661011695861816,
                -2.277866840362549
            ],
            "type" : "VEC3"
        },
        {
            "bufferView" : 1,
            "componentType" : 5126,
            "count" : 872,
            "type" : "VEC3"
        },
        {
            "bufferView" : 2,
            "componentType" : 5126,
            "count" : 872,
            "type" : "VEC2"
        },
        {
            "bufferView" : 3,
            "componentType" : 5123,
            "count" : 948,
            "type" : "SCALAR"
        }
    ],
    "bufferViews" : [
        {
            "buffer" : 0,
            "byteLength" : 10464,
            "byteOffset" : 0
        },
        {
            "buffer" : 0,
            "byteLength" : 10464,
            "byteOffset" : 10464
        },
        {
            "buffer" : 0,
            "byteLength" : 6976,
            "byteOffset" : 20928
        },
        {
            "buffer" : 0,
            "byteLength" : 1896,
            "byteOffset" : 27904
        }
    ],
    "buffers" : [
        {
            "byteLength" : 29800,
            "uri" : "ph_lander_leg.sturdy.bin"
        }
    ]
}
