{
    "asset" : {
        "generator" : "Khronos glTF Blender I/O v1.3.48",
        "version" : "2.0"
    },
    "scene" : 0,
    "scenes" : [
        {
            "name" : "Scene",
            "nodes" : [
                1
            ]
        }
    ],
    "nodes" : [
        {
            "mesh" : 0,
            "name" : "Cone",
            "rotation" : [
                0,
                0,
                0.13052618503570557,
                0.9914448857307434
            ],
            "translation" : [
                0,
                0,
                -0.2509332001209259
            ]
        },
        {
            "children" : [
                0
            ],
            "extras" : {
                "flowvelocity" : 7,
                "color" : [
                    1,
                    1,
                    1,
                    1
                ],
                "zMax" : 1.25,
                "zMin" : -3.48
            },
            "name" : "plume_rcs45"
        }
    ],
    "meshes" : [
        {
            "name" : "Cone",
            "primitives" : [
                {
                    "attributes" : {
                        "POSITION" : 0,
                        "NORMAL" : 1,
                        "TEXCOORD_0" : 2
                    },
                    "indices" : 3
                }
            ]
        }
    ],
    "accessors" : [
        {
            "bufferView" : 0,
            "componentType" : 5126,
            "count" : 84,
            "max" : [
                0.5068551898002625,
                0.5068551898002625,
                0.3949659764766693
            ],
            "min" : [
                -0.5068550705909729,
                -0.5068550705909729,
                -0.6614273190498352
            ],
            "type" : "VEC3"
        },
        {
            "bufferView" : 1,
            "componentType" : 5126,
            "count" : 84,
            "type" : "VEC3"
        },
        {
            "bufferView" : 2,
            "componentType" : 5126,
            "count" : 84,
            "type" : "VEC2"
        },
        {
            "bufferView" : 3,
            "componentType" : 5123,
            "count" : 108,
            "type" : "SCALAR"
        }
    ],
    "bufferViews" : [
        {
            "buffer" : 0,
            "byteLength" : 1008,
            "byteOffset" : 0
        },
        {
            "buffer" : 0,
            "byteLength" : 1008,
            "byteOffset" : 1008
        },
        {
            "buffer" : 0,
            "byteLength" : 672,
            "byteOffset" : 2016
        },
        {
            "buffer" : 0,
            "byteLength" : 216,
            "byteOffset" : 2688
        }
    ],
    "buffers" : [
        {
            "byteLength" : 2904,
            "uri" : "ph_lander_rcsplume.sturdy.bin"
        }
    ]
}
