{
    "asset" : {
        "generator" : "Khronos glTF Blender I/O v1.3.48",
        "version" : "2.0"
    },
    "scene" : 0,
    "scenes" : [
        {
            "name" : "Scene",
            "nodes" : [
                1
            ]
        }
    ],
    "nodes" : [
        {
            "mesh" : 0,
            "name" : "plume"
        },
        {
            "children" : [
                0
            ],
            "name" : "plume_mainEngPlume"
        }
    ],
    "materials" : [
        {
            "doubleSided" : true,
            "emissiveFactor" : [
                0,
                0,
                0
            ],
            "name" : "Material.001",
            "pbrMetallicRoughness" : {
                "baseColorTexture" : {
                    "index" : 0,
                    "texCoord" : 0
                },
                "metallicFactor" : 0,
                "roughnessFactor" : 0.5
            }
        }
    ],
    "meshes" : [
        {
            "name" : "Cylinder.003",
            "primitives" : [
                {
                    "attributes" : {
                        "POSITION" : 0,
                        "NORMAL" : 1,
                        "TEXCOORD_0" : 2
                    },
                    "indices" : 3,
                    "material" : 0
                }
            ]
        }
    ],
    "textures" : [
        {
            "source" : 0
        }
    ],
    "images" : [
        {
            "mimeType" : "image/png",
            "name" : "plumebase",
            "uri" : "plumebase.png"
        }
    ],
    "accessors" : [
        {
            "bufferView" : 0,
            "componentType" : 5126,
            "count" : 1044,
            "max" : [
                4.160719394683838,
                4.160720348358154,
                0.9262782335281372
            ],
            "min" : [
                -4.160719871520996,
                -4.160719394683838,
                -6.7089128494262695
            ],
            "type" : "VEC3"
        },
        {
            "bufferView" : 1,
            "componentType" : 5126,
            "count" : 1044,
            "type" : "VEC3"
        },
        {
            "bufferView" : 2,
            "componentType" : 5126,
            "count" : 1044,
            "type" : "VEC2"
        },
        {
            "bufferView" : 3,
            "componentType" : 5123,
            "count" : 1614,
            "type" : "SCALAR"
        }
    ],
    "bufferViews" : [
        {
            "buffer" : 0,
            "byteLength" : 12528,
            "byteOffset" : 0
        },
        {
            "buffer" : 0,
            "byteLength" : 12528,
            "byteOffset" : 12528
        },
        {
            "buffer" : 0,
            "byteLength" : 8352,
            "byteOffset" : 25056
        },
        {
            "buffer" : 0,
            "byteLength" : 3228,
            "byteOffset" : 33408
        }
    ],
    "buffers" : [
        {
            "byteLength" : 36636,
            "uri" : "plume.sturdy.bin"
        }
    ]
}
